<svg width="853" height="208" viewBox="0 0 853 208" fill="none" xmlns="http://www.w3.org/2000/svg">
<path d="M0.625001 164V10.4H107.725V40.55H37.75V72.05H102.25V102.275H37.75V133.85H107.725V164H0.625001ZM149.503 48.8L168.478 86.75L188.128 48.8H225.103L192.928 106.4L226.303 164H189.628L168.478 125.75L147.853 164H110.653L144.103 106.4L112.303 48.8H149.503ZM300.275 207.2V145.325H299.525C297.975 148.875 295.775 152.2 292.925 155.3C290.075 158.4 286.5 160.9 282.2 162.8C277.95 164.7 272.925 165.65 267.125 165.65C258.625 165.65 250.9 163.45 243.95 159.05C237 154.65 231.45 148.05 227.3 139.25C223.15 130.45 221.075 119.525 221.075 106.475C221.075 92.925 223.225 81.775 227.525 73.025C231.825 64.275 237.45 57.8 244.4 53.6C251.4 49.4 258.925 47.3 266.975 47.3C273.025 47.3 278.2 48.35 282.5 50.45C286.8 52.5 290.35 55.15 293.15 58.4C295.95 61.65 298.075 65.025 299.525 68.525H300.65V48.8H336.95V207.2H300.275ZM279.875 137.075C284.325 137.075 288.125 135.825 291.275 133.325C294.425 130.775 296.85 127.2 298.55 122.6C300.25 118 301.1 112.6 301.1 106.4C301.1 100.1 300.25 94.675 298.55 90.125C296.9 85.575 294.475 82.075 291.275 79.625C288.125 77.175 284.325 75.95 279.875 75.95C275.325 75.95 271.475 77.2 268.325 79.7C265.175 82.2 262.775 85.725 261.125 90.275C259.525 94.825 258.725 100.2 258.725 106.4C258.725 112.6 259.55 118 261.2 122.6C262.85 127.2 265.225 130.775 268.325 133.325C271.475 135.825 275.325 137.075 279.875 137.075ZM421.797 114.275V48.8H458.397V164H423.447V142.55H422.247C419.697 149.6 415.347 155.2 409.197 159.35C403.097 163.45 395.722 165.5 387.072 165.5C379.222 165.5 372.322 163.7 366.372 160.1C360.422 156.5 355.797 151.475 352.497 145.025C349.197 138.525 347.522 130.925 347.472 122.225V48.8H384.147V115.025C384.197 121.275 385.847 126.2 389.097 129.8C392.347 133.4 396.772 135.2 402.372 135.2C406.022 135.2 409.297 134.4 412.197 132.8C415.147 131.15 417.472 128.775 419.172 125.675C420.922 122.525 421.797 118.725 421.797 114.275ZM469.068 164V48.8H505.743V164H469.068ZM487.443 35.375C482.293 35.375 477.868 33.675 474.168 30.275C470.468 26.825 468.618 22.675 468.618 17.825C468.618 13.025 470.468 8.92498 474.168 5.52499C477.868 2.07498 482.293 0.349981 487.443 0.349981C492.643 0.349981 497.068 2.07498 500.718 5.52499C504.418 8.92498 506.268 13.025 506.268 17.825C506.268 22.675 504.418 26.825 500.718 30.275C497.068 33.675 492.643 35.375 487.443 35.375ZM516.715 164V143.075L570.115 78.05V77.3H518.59V48.8H613.84V71.75L564.34 134.75V135.5H615.64V164H516.715ZM626.668 164V48.8H663.343V164H626.668ZM645.043 35.375C639.893 35.375 635.468 33.675 631.768 30.275C628.068 26.825 626.218 22.675 626.218 17.825C626.218 13.025 628.068 8.92498 631.768 5.52499C635.468 2.07498 639.893 0.349981 645.043 0.349981C650.243 0.349981 654.668 2.07498 658.318 5.52499C662.018 8.92498 663.868 13.025 663.868 17.825C663.868 22.675 662.018 26.825 658.318 30.275C654.668 33.675 650.243 35.375 645.043 35.375ZM739.04 48.8V75.8H666.365V48.8H739.04ZM681.59 21.2H718.265V127.775C718.265 130.025 718.615 131.85 719.315 133.25C720.065 134.6 721.14 135.575 722.54 136.175C723.94 136.725 725.615 137 727.565 137C728.965 137 730.44 136.875 731.99 136.625C733.59 136.325 734.79 136.075 735.59 135.875L741.14 162.35C739.39 162.85 736.915 163.475 733.715 164.225C730.565 164.975 726.79 165.45 722.39 165.65C713.79 166.05 706.415 165.05 700.265 162.65C694.165 160.2 689.49 156.4 686.24 151.25C683.04 146.1 681.49 139.625 681.59 131.825V21.2ZM797.693 166.175C785.643 166.175 775.243 163.8 766.493 159.05C757.793 154.25 751.093 147.425 746.393 138.575C741.743 129.675 739.418 119.1 739.418 106.85C739.418 94.95 741.768 84.55 746.468 75.65C751.168 66.7 757.793 59.75 766.343 54.8C774.893 49.8 784.968 47.3 796.568 47.3C804.768 47.3 812.268 48.575 819.068 51.125C825.868 53.675 831.743 57.45 836.693 62.45C841.643 67.45 845.493 73.625 848.243 80.975C850.993 88.275 852.368 96.65 852.368 106.1V115.25H752.243V93.95H818.243C818.193 90.05 817.268 86.575 815.468 83.525C813.668 80.475 811.193 78.1 808.043 76.4C804.943 74.65 801.368 73.775 797.318 73.775C793.218 73.775 789.543 74.7 786.293 76.55C783.043 78.35 780.468 80.825 778.568 83.975C776.668 87.075 775.668 90.6 775.568 94.55V116.225C775.568 120.925 776.493 125.05 778.343 128.6C780.193 132.1 782.818 134.825 786.218 136.775C789.618 138.725 793.668 139.7 798.368 139.7C801.618 139.7 804.568 139.25 807.218 138.35C809.868 137.45 812.143 136.125 814.043 134.375C815.943 132.625 817.368 130.475 818.318 127.925L851.993 128.9C850.593 136.45 847.518 143.025 842.768 148.625C838.068 154.175 831.893 158.5 824.243 161.6C816.593 164.65 807.743 166.175 797.693 166.175Z" fill="#3730A3"/>
</svg>
